HIERARCHY
ROOT Hips
{
  OFFSET -24.5077 92.419 -73.7383
  CHANNELS 6 Xposition Yposition Zposition Zrotation Xrotation Yrotation
  JOINT LeftUpLeg
  {
    OFFSET 9.63379 -0.250344 0
    CHANNELS 6 Xposition Yposition Zposition Zrotation Xrotation Yrotation
    JOINT LeftLeg
    {
      OFFSET 0 -40.4779 -1.71313
      CHANNELS 6 Xposition Yposition Zposition Zrotation Xrotation Yrotation
      JOINT LeftFoot
      {
        OFFSET 0.0126047 -40.4416 -0.864524
        CHANNELS 6 Xposition Yposition Zposition Zrotation Xrotation Yrotation
        JOINT LeftToeBase
        {
          OFFSET -0.183287 -12.1867 8.28226
          CHANNELS 6 Xposition Yposition Zposition Zrotation Xrotation Yrotation
          End Site
          {
            OFFSET 0 0 9.15615
          }
        }
      }
    }
  }
  JOINT RightUpLeg
  {
    OFFSET -9.63379 -0.250344 0
    CHANNELS 6 Xposition Yposition Zposition Zrotation Xrotation Yrotation
    JOINT RightLeg
    {
      OFFSET 0 -40.478 -1.71313
      CHANNELS 6 Xposition Yposition Zposition Zrotation Xrotation Yrotation
      JOINT RightFoot
      {
        OFFSET -0.0126047 -40.4414 -0.864524
        CHANNELS 6 Xposition Yposition Zposition Zrotation Xrotation Yrotation
        JOINT RightToeBase
        {
          OFFSET 0.183287 -12.1867 8.28226
          CHANNELS 6 Xposition Yposition Zposition Zrotation Xrotation Yrotation
          End Site
          {
            OFFSET 0.00319481 0 9.156
          }
        }
      }
    }
  }
  JOINT Spine
  {
    OFFSET 0 5.60909 -1.89659
    CHANNELS 6 Xposition Yposition Zposition Zrotation Xrotation Yrotation
    JOINT Spine1
    {
      OFFSET 0 6.56349 1.09934
      CHANNELS 6 Xposition Yposition Zposition Zrotation Xrotation Yrotation
      JOINT Spine2
      {
        OFFSET 0 7.57662 1.04304
        CHANNELS 6 Xposition Yposition Zposition Zrotation Xrotation Yrotation
        JOINT Spine3
        {
          OFFSET 0 8.29213 0.399731
          CHANNELS 6 Xposition Yposition Zposition Zrotation Xrotation Yrotation
          JOINT Spine4
          {
            OFFSET 0 8.9581 -0.526302
            CHANNELS 6 Xposition Yposition Zposition Zrotation Xrotation Yrotation
            JOINT Neck
            {
              OFFSET 0 18.4163 -4.35419
              CHANNELS 6 Xposition Yposition Zposition Zrotation Xrotation Yrotation
              JOINT Head
              {
                OFFSET 0 8.97127 1.78542
                CHANNELS 6 Xposition Yposition Zposition Zrotation Xrotation Yrotation
                End Site
                {
                  OFFSET 0 19.3737 0.971395
                }
              }
            }
            JOINT LeftShoulder
            {
              OFFSET 6.14423 15.3316 -3.79324
              CHANNELS 6 Xposition Yposition Zposition Zrotation Xrotation Yrotation
              JOINT LeftArm
              {
                OFFSET 9.01906 -1.11411 -1.79347
                CHANNELS 6 Xposition Yposition Zposition Zrotation Xrotation Yrotation
                JOINT LeftForeArm
                {
                  OFFSET 27.687 0 0
                  CHANNELS 6 Xposition Yposition Zposition Zrotation Xrotation Yrotation
                  JOINT LeftHand
                  {
                    OFFSET 27.8738 0 0
                    CHANNELS 6 Xposition Yposition Zposition Zrotation Xrotation Yrotation
                    End Site
                    {
                      OFFSET 5 0 0
                    }
                  }
                }
              }
            }
            JOINT RightShoulder
            {
              OFFSET -6.14423 15.3316 -3.79324
              CHANNELS 6 Xposition Yposition Zposition Zrotation Xrotation Yrotation
              JOINT RightArm
              {
                OFFSET -9.01884 -1.11411 -1.79347
                CHANNELS 6 Xposition Yposition Zposition Zrotation Xrotation Yrotation
                JOINT RightForeArm
                {
                  OFFSET -27.0381 0.00109999 0
                  CHANNELS 6 Xposition Yposition Zposition Zrotation Xrotation Yrotation
                  JOINT RightHand
                  {
                    OFFSET -28.5227 0 0
                    CHANNELS 6 Xposition Yposition Zposition Zrotation Xrotation Yrotation
                    End Site
                    {
                      OFFSET -5 0 0
                    }
                  }
                }
              }
            }
          }
        }
      }
    }
  }
}
MOTION
Frames:	7
Frame Time:	0.00833333
-22.0426 79.6868 -77.8783 8.45095 14.2219 -6.53749 9.63379 -0.250344 -7.15256e-007 -10.9344 -53.5291 -7.56173 0 -40.4779 -1.71313 2.97825 59.2931 -1.93448 0.0126047 -40.4416 -0.864524 0.323451 1.93501 -0.00972575 -0.183287 -12.1867 8.28226 -4.34854e-011 6.63897e-011 -4.16653e-012 -9.63379 -0.250344 -7.15256e-007 -6.66272 -58.4258 -9.92067 0 -40.478 -1.71313 -20.2061 59.7388 17.1228 -0.0126047 -40.4414 -0.864524 -0.486378 0.744406 0.0037163 0.183287 -12.1867 8.28226 -3.4809e-012 -1.854e-011 -2.46429e-011 -2.64698e-023 5.60909 -1.89659 -1.51181 0.6577 -0.759356 0 6.56349 1.09934 -0.319834 0.865643 -0.505769 0 7.57662 1.04304 -0.321767 0.865548 -0.504693 0 8.29213 0.399731 -0.32371 0.865431 -0.503639 0 8.9581 -0.526302 -0.325664 0.865291 -0.502607 0 18.4163 -4.35419 -14.115 -49.3672 -1.28513 1.05879e-022 8.97127 1.78542 7.99872 12.4597 -1.31852 6.14423 15.3316 -3.79324 -17.6863 4.35746 -14.264 9.01906 -1.11411 -1.79347 -36.3162 -4.53973 -53.0558 27.687 0 0 -4.8034 -6.97622 -22.0009 27.8738 0 0 16.2872 0.306495 -7.42709 -6.14423 15.3316 -3.79324 19.1834 11.0072 37.5713 -9.01884 -1.11411 -1.79347 7.09467 17.3897 48.1728 -27.0381 0.00109999 5.96046e-008 -10.7872 -2.21736 6.41018 -28.5227 0 0 -21.7645 -4.56893 -0.106508 
-22.0782 79.932 -77.9153 8.36373 14.33 -6.60267 9.63379 -0.250344 -7.15256e-007 -10.875 -53.3321 -7.64573 0 -40.4779 -1.71313 3.17589 58.7285 -2.01773 0.0126047 -40.4416 -0.864524 0.312501 1.77834 -0.00981604 -0.183287 -12.1867 8.28226 -4.34854e-011 6.63897e-011 -4.16653e-012 -9.63379 -0.250344 -7.15256e-007 -6.36082 -58.1733 -9.83303 0 -40.478 -1.71313 -20.0087 59.0713 16.9351 -0.0126047 -40.4414 -0.864524 -0.479792 0.789922 0.00376507 0.183287 -12.1867 8.28226 -3.4809e-012 -1.854e-011 -2.46429e-011 -2.64698e-023 5.60909 -1.89659 -1.50411 0.645643 -0.755839 0 6.56349 1.09934 -0.291938 0.838464 -0.490387 0 7.57662 1.04304 -0.293832 0.838367 -0.489409 0 8.29213 0.399731 -0.295734 0.838249 -0.488452 0 8.9581 -0.526302 -0.297645 0.83811 -0.487516 0 18.4163 -4.35419 -14.1354 -49.3715 -1.34959 1.05879e-022 8.97127 1.78542 8.05549 12.4519 -1.38461 6.14423 15.3316 -3.79324 -17.0983 4.3141 -14.4948 9.01906 -1.11411 -1.79347 -36.0676 -5.44999 -54.7438 27.687 0 0 -4.91101 -7.59343 -23.0254 27.8738 0 0 16.3089 0.31527 -7.71876 -6.14423 15.3316 -3.79324 18.689 10.7877 37.4947 -9.01884 -1.11411 -1.79347 6.34105 15.9216 49.8605 -27.0381 0.00109999 5.96046e-008 -11.4259 -3.24587 7.11483 -28.5227 0 0 -21.1246 -4.38787 -0.00544783 
-22.1053 80.2306 -77.9555 8.34898 14.4568 -6.70675 9.63379 -0.250344 -7.15256e-007 -10.844 -53.0608 -7.70116 0 -40.4779 -1.71313 3.31483 57.982 -2.05575 0.0126047 -40.4416 -0.864524 0.31129 1.67377 -0.00990696 -0.183287 -12.1867 8.28226 -4.34854e-011 6.63897e-011 -4.16653e-012 -9.63379 -0.250344 -7.15256e-007 -6.36915 -57.904 -10.0205 0 -40.478 -1.71313 -19.5836 58.3584 16.5551 -0.0126047 -40.4414 -0.864524 -0.47289 0.738321 0.00381449 0.183287 -12.1867 8.28226 -3.4809e-012 -1.854e-011 -2.46429e-011 -2.64698e-023 5.60909 -1.89659 -1.49576 0.608924 -0.743065 0 6.56349 1.09934 -0.288461 0.771638 -0.4637 0 7.57662 1.04304 -0.290233 0.771542 -0.462748 0 8.29213 0.399731 -0.292012 0.771427 -0.461813 0 8.9581 -0.526302 -0.293799 0.771293 -0.460897 0 18.4163 -4.35419 -14.1234 -49.1482 -1.38022 1.05879e-022 8.97127 1.78542 8.12298 12.3706 -1.46205 6.14423 15.3316 -3.79324 -16.5347 4.29126 -14.794 9.01906 -1.11411 -1.79347 -35.9467 -6.36545 -56.131 27.687 0 0 -5.04262 -8.23451 -24.1428 27.8738 0 0 16.3234 0.323403 -7.99735 -6.14423 15.3316 -3.79324 18.3931 10.6416 37.3903 -9.01884 -1.11411 -1.79347 5.72129 14.5774 51.3131 -27.0381 0.00109999 5.96046e-008 -12.2548 -3.65865 7.89247 -28.5227 0 0 -20.4385 -4.26141 -0.320826 
-22.1314 80.5747 -77.9772 8.39708 14.5979 -6.85094 9.63379 -0.250344 -7.15256e-007 -10.8239 -52.7119 -7.72183 0 -40.4779 -1.71313 3.40803 57.0872 -2.05946 0.0126047 -40.4416 -0.864524 0.314479 1.59658 -0.00999843 -0.183287 -12.1867 8.28226 -4.34854e-011 6.63897e-011 -4.16653e-012 -9.63379 -0.250344 -7.15256e-007 -6.53457 -57.6025 -10.3259 0 -40.478 -1.71313 -19.0402 57.592 16.0758 -0.0126047 -40.4414 -0.864524 -0.464908 0.625709 0.00386459 0.183287 -12.1867 8.28226 -3.4809e-012 -1.854e-011 -2.46429e-011 -2.64698e-023 5.60909 -1.89659 -1.48782 0.552974 -0.722937 0 6.56349 1.09934 -0.304668 0.673128 -0.42874 0 7.57662 1.04304 -0.306259 0.673036 -0.427754 0 8.29213 0.399731 -0.307857 0.672928 -0.426781 0 8.9581 -0.526302 -0.309461 0.672803 -0.425822 0 18.4163 -4.35419 -14.0717 -48.7538 -1.3743 1.05879e-022 8.97127 1.78542 8.20353 12.2403 -1.54316 6.14423 15.3316 -3.79324 -16.006 4.27157 -15.0968 9.01906 -1.11411 -1.79347 -35.8856 -7.29163 -57.2804 27.687 0 0 -5.23012 -8.90825 -25.3372 27.8738 0 0 16.3681 0.329703 -8.26954 -6.14423 15.3316 -3.79324 18.2651 10.5491 37.2398 -9.01884 -1.11411 -1.79347 5.22249 13.3258 52.5726 -27.0381 0.00109999 5.96046e-008 -13.2426 -3.67208 8.73507 -28.5227 0 0 -19.6866 -4.1619 -0.909809 
-22.1648 80.9504 -77.9581 8.45237 14.7191 -6.99611 9.63379 -0.250344 -7.15256e-007 -10.7635 -52.2626 -7.68074 0 -40.4779 -1.71313 3.48706 56.1017 -2.04955 0.0126047 -40.4416 -0.864524 0.317824 1.51345 -0.0100904 -0.183287 -12.1867 8.28226 -4.34854e-011 6.63897e-011 -4.16653e-012 -9.63379 -0.250344 -7.15256e-007 -6.74059 -57.2053 -10.7026 0 -40.478 -1.71313 -18.4944 56.7483 15.5928 -0.0126047 -40.4414 -0.864524 -0.456513 0.503432 0.00391538 0.183287 -12.1867 8.28226 -3.4809e-012 -1.854e-011 -2.46429e-011 -2.64698e-023 5.60909 -1.89659 -1.48032 0.489855 -0.700224 0 6.56349 1.09934 -0.325489 0.563775 -0.392466 0 7.57662 1.04304 -0.326884 0.563689 -0.391434 0 8.29213 0.399731 -0.328285 0.563587 -0.390411 0 8.9581 -0.526302 -0.329691 0.563471 -0.389399 0 18.4163 -4.35419 -13.9871 -48.2643 -1.33955 1.05879e-022 8.97127 1.78542 8.26407 12.0688 -1.61037 6.14423 15.3316 -3.79324 -15.5124 4.24833 -15.3669 9.01906 -1.11411 -1.79347 -35.8478 -8.16236 -58.2656 27.687 0 0 -5.48125 -9.57765 -26.592 27.8738 0 0 16.4425 0.333796 -8.54474 -6.14423 15.3316 -3.79324 18.2245 10.4824 37.0579 -9.01884 -1.11411 -1.79347 4.85695 12.2102 53.6857 -27.0381 0.00109999 5.96046e-008 -14.2812 -3.63834 9.65037 -28.5227 0 0 -18.9507 -4.06841 -1.51454 
-22.2135 81.3438 -77.8758 8.45849 14.7863 -7.10294 9.63379 -0.250344 -7.15256e-007 -10.614 -51.6901 -7.55285 0 -40.4779 -1.71313 3.5814 55.083 -2.04482 0.0126047 -40.4416 -0.864524 0.317077 1.39101 -0.0101827 -0.183287 -12.1867 8.28226 -4.34854e-011 6.63897e-011 -4.16653e-012 -9.63379 -0.250344 -7.15256e-007 -6.86896 -56.6493 -11.1029 0 -40.478 -1.71313 -18.0537 55.8054 15.1951 -0.0126047 -40.4414 -0.864524 -0.448374 0.422838 0.00396688 0.183287 -12.1867 8.28226 -3.4809e-012 -1.854e-011 -2.46429e-011 -2.64698e-023 5.60909 -1.89659 -1.47335 0.431627 -0.679697 0 6.56349 1.09934 -0.335949 0.464421 -0.361834 0 7.57662 1.04304 -0.337177 0.464338 -0.360793 0 8.29213 0.399731 -0.33841 0.464242 -0.359758 0 8.9581 -0.526302 -0.339647 0.464131 -0.35873 0 18.4163 -4.35419 -13.8765 -47.7556 -1.28359 1.05879e-022 8.97127 1.78542 8.27177 11.8638 -1.64619 6.14423 15.3316 -3.79324 -15.0539 4.21492 -15.568 9.01906 -1.11411 -1.79347 -35.7974 -8.90868 -59.1522 27.687 0 0 -5.79988 -10.2074 -27.8891 27.8738 0 0 16.5461 0.335307 -8.83235 -6.14423 15.3316 -3.79324 18.1904 10.4138 36.8598 -9.01884 -1.11411 -1.79347 4.63774 11.2687 54.6932 -27.0381 0.00109999 5.96046e-008 -15.2416 -3.90633 10.6478 -28.5227 0 0 -18.3134 -3.96068 -1.87725 
-22.29 81.756 -77.7112 8.37866 14.772 -7.157 9.63379 -0.250344 -7.15256e-007 -10.3335 -50.9593 -7.31167 0 -40.4779 -1.71313 3.71622 54.0553 -2.05911 0.0126047 -40.4416 -0.864524 0.310461 1.20728 -0.0101819 -0.183287 -12.1867 8.28226 -4.34854e-011 6.63897e-011 -4.16653e-012 -9.63379 -0.250344 -7.15256e-007 -6.82409 -55.8767 -11.5172 0 -40.478 -1.71313 -17.818 54.7262 14.9653 -0.0126047 -40.4414 -0.864524 -0.441203 0.407195 0.00401907 0.183287 -12.1867 8.28226 -3.4809e-012 -1.854e-011 -2.46429e-011 -2.64698e-023 5.60909 -1.89659 -1.47058 0.382568 -0.662297 0 6.56349 1.09934 -0.329879 0.383383 -0.336217 0 7.57662 1.04304 -0.330973 0.383299 -0.335227 0 8.29213 0.399731 -0.33207 0.383203 -0.33424 0 8.9581 -0.526302 -0.33317 0.383095 -0.333257 0 18.4163 -4.35419 -13.7032 -47.2372 -1.19835 1.05879e-022 8.97127 1.78542 8.19241 11.6203 -1.63498 6.14423 15.3316 -3.79324 -14.6154 4.16835 -15.7014 9.01906 -1.11411 -1.79347 -35.7034 -9.54353 -59.9254 27.687 0 0 -6.23486 -10.866 -29.2304 27.8738 0 0 16.7097 0.332001 -9.14678 -6.14423 15.3316 -3.79324 18.1596 10.3341 36.6163 -9.01884 -1.11411 -1.79347 4.58613 10.501 55.611 -27.0381 0.00109999 5.96046e-008 -16.0766 -4.58739 11.7229 -28.5227 0 0 -17.8036 -3.82931 -1.89456 
